<mxfile host="app.diagrams.net" modified="2021-02-02T10:44:13.097Z" agent="5.0 (Windows NT 10.0; Win64; x64) AppleWebKit/537.36 (KHTML, like Gecko) Chrome/88.0.4324.104 Safari/537.36" etag="D0xFYnh7jfcee91YHxpF" version="14.2.7" type="github">
  <diagram id="DaAElW53DydK1hZUNb8G" name="Page-1">
    <mxGraphModel dx="868" dy="482" grid="1" gridSize="10" guides="1" tooltips="1" connect="1" arrows="1" fold="1" page="1" pageScale="1" pageWidth="827" pageHeight="1169" background="#F4F1DE" math="0" shadow="0">
      <root>
        <mxCell id="0" />
        <mxCell id="1" parent="0" />
        <mxCell id="8B-Y91hBN3UMPwdtuK3r-6" value="" style="whiteSpace=wrap;html=1;aspect=fixed;rounded=0;sketch=0;strokeColor=#E07A5F;fillColor=#F2CC8F;fontColor=#393C56;" parent="1" vertex="1">
          <mxGeometry x="190" width="460" height="460" as="geometry" />
        </mxCell>
        <mxCell id="8B-Y91hBN3UMPwdtuK3r-2" value="Profesor" style="shape=umlActor;verticalLabelPosition=bottom;verticalAlign=top;html=1;strokeColor=#E07A5F;strokeWidth=2;fillColor=#F2CC8F;fontColor=#393C56;" parent="1" vertex="1">
          <mxGeometry x="90" y="75" width="30" height="60" as="geometry" />
        </mxCell>
        <mxCell id="8B-Y91hBN3UMPwdtuK3r-3" value="Alumno&lt;br&gt;Matriculado" style="shape=umlActor;verticalLabelPosition=bottom;verticalAlign=top;html=1;strokeColor=#E07A5F;strokeWidth=2;fillColor=#F2CC8F;fontColor=#393C56;" parent="1" vertex="1">
          <mxGeometry x="90" y="305" width="30" height="60" as="geometry" />
        </mxCell>
        <mxCell id="8B-Y91hBN3UMPwdtuK3r-5" value="Alta de una asignatura" style="ellipse;whiteSpace=wrap;html=1;rounded=0;sketch=0;strokeColor=#6c8ebf;fillColor=#dae8fc;" parent="1" vertex="1">
          <mxGeometry x="200" y="70" width="140" height="70" as="geometry" />
        </mxCell>
        <mxCell id="8B-Y91hBN3UMPwdtuK3r-10" value="Listado de alumnos matriculados" style="ellipse;whiteSpace=wrap;html=1;rounded=0;sketch=0;strokeColor=#6c8ebf;fillColor=#dae8fc;" parent="1" vertex="1">
          <mxGeometry x="490" y="70" width="140" height="70" as="geometry" />
        </mxCell>
        <mxCell id="8B-Y91hBN3UMPwdtuK3r-13" value="" style="endArrow=none;html=1;strokeColor=#E07A5F;strokeWidth=2;fillColor=#F2CC8F;fontColor=#393C56;exitX=0.5;exitY=0.5;exitDx=0;exitDy=0;exitPerimeter=0;entryX=0;entryY=0.5;entryDx=0;entryDy=0;" parent="1" source="8B-Y91hBN3UMPwdtuK3r-2" target="8B-Y91hBN3UMPwdtuK3r-5" edge="1">
          <mxGeometry width="50" height="50" relative="1" as="geometry">
            <mxPoint x="140" y="105.5" as="sourcePoint" />
            <mxPoint x="190" y="55.5" as="targetPoint" />
          </mxGeometry>
        </mxCell>
        <mxCell id="8B-Y91hBN3UMPwdtuK3r-14" value="" style="endArrow=none;html=1;strokeColor=#E07A5F;strokeWidth=2;fillColor=#F2CC8F;fontColor=#393C56;exitX=1;exitY=0.5;exitDx=0;exitDy=0;entryX=0;entryY=0.5;entryDx=0;entryDy=0;" parent="1" source="yi_X9vKZWMaxbVWBLpOh-5" target="8B-Y91hBN3UMPwdtuK3r-10" edge="1">
          <mxGeometry width="50" height="50" relative="1" as="geometry">
            <mxPoint x="140" y="240.5" as="sourcePoint" />
            <mxPoint x="190" y="190.5" as="targetPoint" />
          </mxGeometry>
        </mxCell>
        <mxCell id="8B-Y91hBN3UMPwdtuK3r-15" value="Consultar peticiones de cambio de asignatura" style="ellipse;whiteSpace=wrap;html=1;rounded=0;sketch=0;strokeColor=#6c8ebf;fillColor=#dae8fc;" parent="1" vertex="1">
          <mxGeometry x="190" y="300" width="140" height="70" as="geometry" />
        </mxCell>
        <mxCell id="8B-Y91hBN3UMPwdtuK3r-16" value="Solicitar cambio" style="ellipse;whiteSpace=wrap;html=1;rounded=0;sketch=0;strokeColor=#6c8ebf;fillColor=#dae8fc;" parent="1" vertex="1">
          <mxGeometry x="480" y="190" width="140" height="70" as="geometry" />
        </mxCell>
        <mxCell id="8B-Y91hBN3UMPwdtuK3r-19" value="" style="endArrow=none;html=1;strokeColor=#E07A5F;strokeWidth=2;fillColor=#F2CC8F;fontColor=#393C56;exitX=0.5;exitY=0.5;exitDx=0;exitDy=0;exitPerimeter=0;entryX=0;entryY=0.5;entryDx=0;entryDy=0;" parent="1" source="8B-Y91hBN3UMPwdtuK3r-3" target="8B-Y91hBN3UMPwdtuK3r-15" edge="1">
          <mxGeometry width="50" height="50" relative="1" as="geometry">
            <mxPoint x="65" y="519.5" as="sourcePoint" />
            <mxPoint x="200" y="460" as="targetPoint" />
          </mxGeometry>
        </mxCell>
        <mxCell id="8B-Y91hBN3UMPwdtuK3r-20" value="Dejar el cambio" style="ellipse;whiteSpace=wrap;html=1;rounded=0;sketch=0;strokeColor=#6c8ebf;fillColor=#dae8fc;" parent="1" vertex="1">
          <mxGeometry x="480" y="360" width="140" height="70" as="geometry" />
        </mxCell>
        <mxCell id="8B-Y91hBN3UMPwdtuK3r-21" value="" style="endArrow=classic;html=1;strokeColor=#E07A5F;strokeWidth=2;fillColor=#F2CC8F;fontColor=#393C56;exitX=0;exitY=0.5;exitDx=0;exitDy=0;entryX=1;entryY=0;entryDx=0;entryDy=0;dashed=1;" parent="1" source="8B-Y91hBN3UMPwdtuK3r-16" target="8B-Y91hBN3UMPwdtuK3r-15" edge="1">
          <mxGeometry width="50" height="50" relative="1" as="geometry">
            <mxPoint x="430" y="495" as="sourcePoint" />
            <mxPoint x="480" y="445" as="targetPoint" />
          </mxGeometry>
        </mxCell>
        <mxCell id="8B-Y91hBN3UMPwdtuK3r-22" value="" style="endArrow=classic;html=1;strokeColor=#E07A5F;strokeWidth=2;fillColor=#F2CC8F;fontColor=#393C56;entryX=1;entryY=1;entryDx=0;entryDy=0;dashed=1;exitX=0;exitY=0.5;exitDx=0;exitDy=0;" parent="1" source="8B-Y91hBN3UMPwdtuK3r-20" target="8B-Y91hBN3UMPwdtuK3r-15" edge="1">
          <mxGeometry width="50" height="50" relative="1" as="geometry">
            <mxPoint x="420" y="275" as="sourcePoint" />
            <mxPoint x="319.4974746830583" y="320.25126265847075" as="targetPoint" />
          </mxGeometry>
        </mxCell>
        <mxCell id="yi_X9vKZWMaxbVWBLpOh-2" value="&lt;Extend&gt;" style="text;align=center;fontStyle=1;verticalAlign=middle;spacingLeft=3;spacingRight=3;strokeColor=none;rotatable=0;points=[[0,0.5],[1,0.5]];portConstraint=eastwest;" parent="1" vertex="1">
          <mxGeometry x="360" y="344" width="80" height="26" as="geometry" />
        </mxCell>
        <mxCell id="yi_X9vKZWMaxbVWBLpOh-3" value="&lt;Extend&gt;" style="text;align=center;fontStyle=1;verticalAlign=middle;spacingLeft=3;spacingRight=3;strokeColor=none;rotatable=0;points=[[0,0.5],[1,0.5]];portConstraint=eastwest;" parent="1" vertex="1">
          <mxGeometry x="360" y="250" width="80" height="26" as="geometry" />
        </mxCell>
        <mxCell id="yi_X9vKZWMaxbVWBLpOh-5" value="&lt;&lt;Include&gt;&gt;" style="text;align=center;fontStyle=1;verticalAlign=middle;spacingLeft=3;spacingRight=3;strokeColor=none;rotatable=0;points=[[0,0.5],[1,0.5]];portConstraint=eastwest;" parent="1" vertex="1">
          <mxGeometry x="370" y="92" width="80" height="26" as="geometry" />
        </mxCell>
        <mxCell id="yi_X9vKZWMaxbVWBLpOh-6" value="" style="endArrow=none;html=1;strokeColor=#E07A5F;strokeWidth=2;fillColor=#F2CC8F;fontColor=#393C56;exitX=1;exitY=0.5;exitDx=0;exitDy=0;entryX=0;entryY=0.5;entryDx=0;entryDy=0;" parent="1" source="8B-Y91hBN3UMPwdtuK3r-5" edge="1">
          <mxGeometry width="50" height="50" relative="1" as="geometry">
            <mxPoint x="340" y="105" as="sourcePoint" />
            <mxPoint x="370" y="105" as="targetPoint" />
          </mxGeometry>
        </mxCell>
      </root>
    </mxGraphModel>
  </diagram>
</mxfile>
